<svg xmlns="http://www.w3.org/2000/svg" width="1280" height="760" viewBox="0 0 1280 760" role="img" aria-labelledby="title desc">
  <title id="title">Smart Invoice Dashboard Preview</title>
  <desc id="desc">Example dashboard view for Smart Invoice and GST Tool.</desc>
  <rect width="1280" height="760" fill="#f6f7fb"/>
  <rect x="0" y="0" width="260" height="760" fill="#111827"/>
  <text x="34" y="58" font-family="Arial" font-size="24" fill="#ffffff" font-weight="700">Smart Invoice</text>
  <text x="34" y="92" font-family="Arial" font-size="13" fill="#9ca3af">GST Tool India</text>
  <g fill="#374151">
    <rect x="22" y="132" width="216" height="44" rx="8"/>
    <rect x="22" y="188" width="216" height="44" rx="8"/>
    <rect x="22" y="244" width="216" height="44" rx="8"/>
    <rect x="22" y="300" width="216" height="44" rx="8"/>
  </g>
  <text x="48" y="160" font-family="Arial" font-size="15" fill="#ffffff">Dashboard</text>
  <text x="48" y="216" font-family="Arial" font-size="15" fill="#d1d5db">Invoices</text>
  <text x="48" y="272" font-family="Arial" font-size="15" fill="#d1d5db">Clients</text>
  <text x="48" y="328" font-family="Arial" font-size="15" fill="#d1d5db">Reports</text>
  <rect x="260" y="0" width="1020" height="72" fill="#ffffff"/>
  <text x="310" y="45" font-family="Arial" font-size="18" fill="#111827" font-weight="700">Dashboard</text>
  <text x="310" y="128" font-family="Arial" font-size="32" fill="#111827" font-weight="700">Business Overview</text>
  <text x="310" y="158" font-family="Arial" font-size="16" fill="#6b7280">Track sales, GST, unpaid invoices, and recent activity.</text>
  <g>
    <rect x="310" y="205" width="210" height="126" rx="14" fill="#ffffff"/>
    <rect x="542" y="205" width="210" height="126" rx="14" fill="#ffffff"/>
    <rect x="774" y="205" width="210" height="126" rx="14" fill="#ffffff"/>
    <rect x="1006" y="205" width="210" height="126" rx="14" fill="#ffffff"/>
  </g>
  <text x="334" y="246" font-family="Arial" font-size="14" fill="#6b7280">Total Sales</text>
  <text x="334" y="288" font-family="Arial" font-size="30" fill="#111827" font-weight="700">Rs. 1,01,750</text>
  <text x="566" y="246" font-family="Arial" font-size="14" fill="#6b7280">GST Collected</text>
  <text x="566" y="288" font-family="Arial" font-size="30" fill="#111827" font-weight="700">Rs. 14,750</text>
  <text x="798" y="246" font-family="Arial" font-size="14" fill="#6b7280">Balance Due</text>
  <text x="798" y="288" font-family="Arial" font-size="30" fill="#111827" font-weight="700">Rs. 0.00</text>
  <text x="1030" y="246" font-family="Arial" font-size="14" fill="#6b7280">Invoices</text>
  <text x="1030" y="288" font-family="Arial" font-size="30" fill="#111827" font-weight="700">24</text>
  <rect x="310" y="382" width="906" height="286" rx="14" fill="#ffffff"/>
  <text x="338" y="428" font-family="Arial" font-size="20" fill="#111827" font-weight="700">Recent Invoices</text>
  <g fill="#f3f4f6">
    <rect x="338" y="460" width="850" height="44" rx="6"/>
    <rect x="338" y="518" width="850" height="44" rx="6"/>
    <rect x="338" y="576" width="850" height="44" rx="6"/>
  </g>
  <text x="360" y="488" font-family="Arial" font-size="15" fill="#111827">INV-0001 - Acme Digital Services</text>
  <text x="1040" y="488" font-family="Arial" font-size="15" fill="#111827" font-weight="700">Rs. 50,875</text>
  <text x="360" y="546" font-family="Arial" font-size="15" fill="#111827">INV-0002 - Bright Ledger Studio</text>
  <text x="1040" y="546" font-family="Arial" font-size="15" fill="#111827" font-weight="700">Rs. 38,940</text>
  <text x="360" y="604" font-family="Arial" font-size="15" fill="#111827">INV-0003 - Client Retainer</text>
  <text x="1040" y="604" font-family="Arial" font-size="15" fill="#111827" font-weight="700">Rs. 18,880</text>
</svg>
